<?xml version="1.0" encoding="UTF-8" standalone="no"?>
<svg width="145px" height="85px" viewBox="0 0 145 85" version="1.1" xmlns="http://www.w3.org/2000/svg" xmlns:xlink="http://www.w3.org/1999/xlink" xmlns:sketch="http://www.bohemiancoding.com/sketch/ns">
    <!-- Generator: Sketch 3.3.1 (12005) - http://www.bohemiancoding.com/sketch -->
    <title>blogIcon</title>
    <desc>Created with Sketch.</desc>
    <defs>
        <filter x="-50%" y="-50%" width="200%" height="200%" filterUnits="objectBoundingBox" id="filter-1">
            <feOffset dx="2" dy="4" in="SourceAlpha" result="shadowOffsetOuter1"></feOffset>
            <feGaussianBlur stdDeviation="3" in="shadowOffsetOuter1" result="shadowBlurOuter1"></feGaussianBlur>
            <feColorMatrix values="0 0 0 0 1   0 0 0 0 1   0 0 0 0 1  0 0 0 0.35 0" in="shadowBlurOuter1" type="matrix" result="shadowMatrixOuter1"></feColorMatrix>
            <feOffset dx="0" dy="-5" in="SourceAlpha" result="shadowOffsetInner1"></feOffset>
            <feGaussianBlur stdDeviation="1.5" in="shadowOffsetInner1" result="shadowBlurInner1"></feGaussianBlur>
            <feComposite in="shadowBlurInner1" in2="SourceAlpha" operator="arithmetic" k2="-1" k3="1" result="shadowInnerInner1"></feComposite>
            <feColorMatrix values="0 0 0 0 0   0 0 0 0 0   0 0 0 0 0  0 0 0 0.35 0" in="shadowInnerInner1" type="matrix" result="shadowMatrixInner1"></feColorMatrix>
            <feMerge>
                <feMergeNode in="shadowMatrixOuter1"></feMergeNode>
                <feMergeNode in="SourceGraphic"></feMergeNode>
                <feMergeNode in="shadowMatrixInner1"></feMergeNode>
            </feMerge>
        </filter>
        <filter x="-50%" y="-50%" width="200%" height="200%" filterUnits="objectBoundingBox" id="filter-2">
            <feOffset dx="2" dy="4" in="SourceAlpha" result="shadowOffsetOuter1"></feOffset>
            <feGaussianBlur stdDeviation="3" in="shadowOffsetOuter1" result="shadowBlurOuter1"></feGaussianBlur>
            <feColorMatrix values="0 0 0 0 1   0 0 0 0 0.990806503   0 0 0 0 0.990806503  0 0 0 0.35 0" in="shadowBlurOuter1" type="matrix" result="shadowMatrixOuter1"></feColorMatrix>
            <feOffset dx="0" dy="-5" in="SourceAlpha" result="shadowOffsetInner1"></feOffset>
            <feGaussianBlur stdDeviation="1.5" in="shadowOffsetInner1" result="shadowBlurInner1"></feGaussianBlur>
            <feComposite in="shadowBlurInner1" in2="SourceAlpha" operator="arithmetic" k2="-1" k3="1" result="shadowInnerInner1"></feComposite>
            <feColorMatrix values="0 0 0 0 0   0 0 0 0 0   0 0 0 0 0  0 0 0 0.35 0" in="shadowInnerInner1" type="matrix" result="shadowMatrixInner1"></feColorMatrix>
            <feMerge>
                <feMergeNode in="shadowMatrixOuter1"></feMergeNode>
                <feMergeNode in="SourceGraphic"></feMergeNode>
                <feMergeNode in="shadowMatrixInner1"></feMergeNode>
            </feMerge>
        </filter>
    </defs>
    <g id="Welcome" stroke="none" stroke-width="1" fill="none" fill-rule="evenodd" sketch:type="MSPage">
        <path d="M65.2147826,29.9682609 C65.2147826,31.5171575 64.7433864,32.9313463 63.8005797,34.2108696 C61.9823097,34.9516462 60.4671075,35.322029 59.2549275,35.322029 C58.9855542,35.322029 58.6151714,35.2546867 58.1437681,35.12 C57.6723648,34.9853133 57.3693243,34.917971 57.2346377,34.917971 L54.6082609,36.2311594 L52.183913,36.0291304 L50.7697101,36.5342029 L50.0626087,36.3321739 L48.2443478,37.3423188 L46.7291304,36.8372464 C44.9108605,36.8372464 43.4630006,36.8709175 42.3855072,36.9382609 L42.7895652,36.8372464 L40.9713043,37.4433333 L40.6682609,37.4433333 L39.9611594,38.0494203 L38.5469565,37.6453623 L37.7388406,38.3524638 L35.5165217,37.4433333 L34.2033333,38.2514493 C32.5870934,37.780046 31.6443009,37.5443478 31.3749275,37.5443478 C30.6341509,37.5443478 29.7250295,37.780046 28.6475362,38.2514493 L24.1018841,38.6555072 L23.6978261,38.4534783 L21.9805797,38.7565217 L21.8795652,39.1605797 L22.8897101,44.2113043 L22.4856522,44.7163768 L22.8897101,45.7265217 L22.7886957,47.0397101 C23.1254123,48.0498601 23.3611104,49.0599949 23.4957971,50.0701449 L24.707971,51.2823188 L24.505942,51.8884058 L26.5262319,54.4137681 C28.6138752,55.8953214 30.1964197,56.636087 31.273913,56.636087 L31.475942,56.636087 C31.6106287,56.636087 31.7789845,56.6024158 31.9810145,56.5350725 L32.3850725,56.5350725 C32.6544458,56.5350725 33.0248286,56.6360859 33.4962319,56.8381159 L34.4053623,56.7371014 C35.2808256,56.5350715 36.5266586,56.2993733 38.1428986,56.03 L39.254058,55.423913 L39.456087,55.0198551 L40.1631884,54.9188406 L40.9713043,54.4137681 L41.4763768,54.7168116 L43.0926087,54.2117391 L44.4057971,53.4036232 L44.9108696,52.6965217 L46.6281159,51.3833333 L47.9413043,51.1813043 L50.3656522,49.3630435 C52.0492355,49.0936702 53.2613973,47.7468237 54.0021739,45.3224638 L54.3052174,45.4234783 L54.4062319,45.1204348 L55.7194203,45.0194203 L57.6386957,43.4031884 L58.3457971,43.3021739 C58.5478271,43.2348306 58.7835252,43.2011594 59.0528986,43.2011594 C60.3324219,43.2011594 61.1068586,44.4469924 61.3762319,46.9386957 L56.9315942,52.1914493 L55.8204348,52.4944928 L55.4163768,53.1005797 L53.4971014,55.1208696 L50.7697101,56.7371014 L48.5473913,58.8584058 L47.8402899,58.7573913 L47.0321739,59.5655072 L42.4865217,61.2827536 L40.6682609,63.3030435 L39.3550725,62.797971 L38.85,63.7071014 L37.9408696,63.404058 L37.4357971,63.9091304 L34.1023188,63.3030435 L30.6678261,64.7172464 L27.2333333,63.606087 L22.8897101,61.5857971 C19.1858269,59.8348705 16.3237782,54.9862233 14.3034783,47.0397101 L14.4044928,45.9285507 L13.4953623,43.6052174 L14.4044928,42.5950725 L13.7984058,39.7666667 L13.6973913,38.8575362 L11.9801449,36.9382609 L11.9801449,35.726087 C11.9801449,33.7731303 12.5188835,32.4262839 13.5963768,31.6855072 C13.7984068,31.1467606 14.1687896,30.6416932 14.7075362,30.1702899 L14.5055072,29.8672464 L14.5055072,27.0388406 L14.2024638,25.6246377 L15.5156522,22.3921739 L15.8186957,20.775942 L14.8085507,20.8769565 L14.4044928,20.8769565 C13.4616861,20.8769565 12.6535782,20.5570805 11.9801449,19.9173188 C11.3067116,19.2775572 10.97,18.5199561 10.97,17.6444928 C10.97,16.6343428 11.6097521,15.4895233 12.8892754,14.21 L13.5963768,13.5028986 L14.5055072,13.0988406 C15.5830006,12.6274373 16.4247796,12.3917391 17.0308696,12.3917391 L17.535942,12.3917391 C17.6706287,12.3243958 18.0073403,12.2907246 18.546087,12.2907246 L18.9501449,12.2907246 L19.9602899,10.6744928 L24.505942,10.9775362 L24.8089855,11.2805797 C25.4150755,11.145893 26.3241968,11.0785507 27.5363768,11.0785507 L29.5566667,10.5734783 L30.0617391,10.5734783 C30.9372024,10.3041049 31.7789815,9.76536636 32.5871014,8.95724638 L34.1023188,9.76536232 L34.6073913,9.76536232 C34.944108,9.76536232 35.3313263,9.79903348 35.769058,9.86637681 C36.2067896,9.93372014 36.4929945,9.9673913 36.6276812,9.9673913 L46.7291304,9.05826087 L47.7392754,9.46231884 L49.1534783,9.15927536 L49.9615942,8.35115942 L51.9818841,9.46231884 L52.6889855,8.95724638 L54.9113043,9.86637681 L56.4265217,9.46231884 L57.2346377,9.9673913 L60.4671014,9.66434783 L61.1742029,10.1694203 L62.7904348,10.4724638 C64.3393314,10.7418371 65.1137681,11.4826026 65.1137681,12.6947826 C65.1137681,13.5029026 64.8275632,14.209997 64.2551449,14.816087 C63.6827266,15.4221769 63.0934813,15.7252174 62.4873913,15.7252174 L62.0833333,15.7252174 L60.9721739,16.3313043 L58.9518841,15.7252174 L58.0427536,15.8262319 C57.8407236,15.8935752 57.5713543,15.9272464 57.2346377,15.9272464 C56.5612044,15.9272464 55.9551235,15.7925617 55.4163768,15.5231884 L55.1133333,15.1191304 C54.4399,15.2538171 54.0021749,15.3211594 53.8001449,15.3211594 C53.5307716,15.3211594 53.19406,15.2538171 52.79,15.1191304 C52.1165667,15.5905338 50.8707337,15.9945877 49.0524638,16.3313043 C48.1096571,16.3313043 47.0658511,16.2976332 45.9210145,16.2302899 C45.9210145,16.1629465 46.0556991,15.9272484 46.3250725,15.5231884 L43.6986957,16.2302899 C43.6313523,16.1629465 43.56401,16.1292754 43.4966667,16.1292754 C43.0252633,16.1292754 42.1498132,16.6680139 40.8702899,17.7455072 L39.5571014,17.1394203 L38.9510145,17.5434783 L36.5266667,16.8363768 L35.1124638,17.5434783 L33.0921739,17.5434783 L30.0617391,18.1495652 L27.5363768,19.2607246 L26.8292754,18.8566667 L25.516087,19.7657971 L24.2028986,19.7657971 L23.8998551,20.2708696 L24.2028986,21.4830435 L22.4856522,23.5033333 L23.2937681,23.6043478 L23.2937681,26.4327536 L24.4049275,27.6449275 L23.4957971,28.4530435 C22.8223638,29.5978801 22.4856522,30.3723168 22.4856522,30.7763768 C22.4856522,31.0457501 22.6876791,31.2477771 23.0917391,31.3824638 L24.303913,30.9784058 C24.6406297,30.9110625 24.9773413,30.8773913 25.314058,30.8773913 C26.3242079,31.012078 27.0649735,31.1467626 27.5363768,31.2814493 L29.3546377,30.5743478 L30.9708696,31.0794203 L31.88,30.8773913 L32.9911594,30.9784058 L34.6073913,30.6753623 C35.146138,30.810049 35.5838631,30.8773913 35.9205797,30.8773913 C36.189953,30.8773913 36.7286916,30.6416932 37.5368116,30.1702899 C38.0755582,30.4396632 38.8499949,30.5743478 39.8601449,30.5743478 C39.9948316,30.5743478 40.2305297,30.5406767 40.5672464,30.4733333 L41.3753623,30.4733333 L41.5773913,30.4733333 C41.4427046,30.4733333 41.30802,30.4396622 41.1733333,30.3723188 L41.4763768,30.3723188 C41.8804368,30.3723188 43.0925986,30.4733323 45.1128986,30.6753623 C45.3149285,30.608019 46.3587345,30.5406767 48.2443478,30.4733333 C49.3218411,30.40599 49.9952644,30.3723188 50.2646377,30.3723188 C51.2747877,30.3723188 52.2512513,30.40599 53.194058,30.4733333 L54.1031884,30.3723188 C55.0459951,29.8335722 55.9214452,29.5642029 56.7295652,29.5642029 C57.3356552,29.5642029 57.9417361,29.6652164 58.5478261,29.8672464 L59.962029,29.5642029 L61.1742029,30.0692754 L65.2147826,29.0591304 L65.2147826,29.9682609 Z" id="E" fill="#1F3F40" filter="url(#filter-1)" sketch:type="MSShapeGroup"></path>
        <path d="M141.071128,43.5454865 L139.945538,44.4834783 C140.133138,44.7336106 140.477064,45.1713357 140.977329,45.7966667 L137.412961,48.0478468 L137.037764,48.0478468 C136.725099,48.0478468 136.318639,47.9540486 135.818375,47.7664493 L134.692785,48.704441 L133.098199,48.5168427 L131.409814,49.9238302 L129.815228,48.9858385 L127.845445,49.5486335 L125.969462,50.6742236 C125.844396,50.6116905 125.688065,50.5804244 125.500466,50.5804244 C125.000201,50.5804244 124.718806,50.7367548 124.656273,51.0494203 L123.90588,54.144793 C124.156012,54.5825246 124.281077,54.9577176 124.281077,55.270383 C124.281077,55.7081147 124.187278,56.1771058 123.999679,56.6773706 L123.718282,57.427764 L124.093478,57.6153623 C124.093478,58.6784249 123.84335,59.6164073 123.343085,60.4293375 C123.718283,61.3048008 123.968412,61.9926545 124.093478,62.4929193 L123.249286,63.1495135 L123.343085,66.5262836 L122.498892,71.4038406 L122.405093,72.3418323 C122.530159,73.0922294 122.592692,73.5924867 122.592692,73.842619 L122.592692,74.3116149 L122.967888,75.2496066 L123.061687,76.9379917 C122.999154,77.2506572 122.842824,77.7196484 122.592692,78.3449793 C122.530158,80.4711045 120.998121,81.5966833 117.996532,81.7217495 L117.808934,79.6581677 L117.05854,78.4387785 L116.495745,76.7503934 L116.495745,73.4674224 L115.839151,71.4976398 L116.120549,71.3100414 L115.839151,69.9030538 L115.839151,67.5580745 L116.120549,63.8999068 L115.93295,60.6169358 L116.495745,58.7409524 L116.495745,56.5835714 C116.495745,56.1458398 116.573911,55.5517843 116.730243,54.8013872 C116.886576,54.05099 116.964741,53.4882006 116.964741,53.1130021 C116.964741,52.4876711 116.777145,51.8936157 116.401946,51.3308178 L116.214348,51.0494203 L115.93295,51.2370186 L114.713561,50.8618219 C113.587965,51.1744874 112.524919,51.3308178 111.524389,51.3308178 C110.836525,51.3308178 110.336268,51.2995517 110.023602,51.2370186 L105.990238,52.4564079 L101.675476,51.987412 C100.549881,51.8623458 99.7682286,51.7998137 99.3304969,51.7998137 C98.5175667,51.7998137 97.3919879,52.0186762 95.9537267,52.4564079 L95.57853,52.4564079 L93.4211491,53.3943996 L91.9203623,52.3626087 L89.575383,52.8316046 L89.2939855,52.6440062 L88.9187888,52.8316046 L87.0428054,52.7378054 L86.855207,53.4881988 L84.2288302,52.4564079 C83.1657676,52.5814741 82.3841157,52.6752723 81.8838509,52.7378054 L81.8838509,57.0525673 L81.6024534,59.2099482 L82.0714493,60.9921325 L81.3210559,62.3991201 L81.9776501,63.7123085 L81.3210559,67.7456729 L81.6962526,68.9650621 L81.5086542,71.2162422 L82.3528468,73.0922257 L81.9776501,73.9364182 L82.1652484,75.0620083 C82.1027154,76.4377363 81.3210634,77.1255901 79.8202692,77.1255901 C77.2564123,77.1255901 75.9745031,74.8119003 75.9745031,70.1844513 L74.6613147,68.5898654 L74.1923188,67.4642754 C74.1923188,66.6513451 74.3799153,65.9634914 74.7551139,65.4006936 L74.9427122,63.8061077 L74.6613147,62.8681159 L74.1923188,55.5517805 L74.1923188,53.5819979 L74.0047205,53.3006004 L72.1287371,52.2688095 L71.8473395,47.6726501 L74.4737164,46.1718634 C74.7863818,45.1713339 74.9427122,43.9206907 74.9427122,42.4198965 C74.9427122,40.9816353 74.7863818,39.7622583 74.4737164,38.7617288 L75.0365114,39.0431263 L74.9427122,37.7299379 L75.5055072,35.7601553 L74.9427122,32.4771843 L74.9427122,30.3198033 L75.5993064,27.0368323 L79.2574741,25.0670497 L81.0396584,26.3802381 L83.009441,27.0368323 L83.2908385,29.1004141 L84.1350311,30.3198033 C83.8223656,31.1952666 83.5409709,32.1019829 83.2908385,33.0399793 C83.4784378,34.0405088 83.572236,35.1035554 83.572236,36.2291511 C83.572236,37.9800778 83.3533735,39.6997121 82.9156418,41.3881056 L83.7598344,43.1702899 L82.8218427,44.4834783 L82.8218427,45.6090683 L83.6660352,45.8904658 L85.9172153,45.6090683 L87.5118012,45.7966667 L90.0443789,45.5152692 L90.7947723,45.7966667 C91.1074377,45.7341336 91.4513646,45.7028675 91.8265631,45.7028675 C92.0766955,45.7028675 92.4518885,45.7653997 92.9521532,45.8904658 L93.1397516,45.984265 L94.5467391,45.984265 C94.6092722,45.984265 95.0938964,45.9529989 96.0006263,45.8904658 C96.9073562,45.8279327 97.8297055,45.7966667 98.7677019,45.7966667 L100.268489,44.8586749 L101.675476,45.7028675 L103.082464,45.7966667 L103.55146,45.8904658 C104.051724,45.7653997 104.458183,45.7028675 104.770849,45.7028675 L105.239845,45.7028675 L115.182557,44.6710766 L116.589545,44.7648758 L117.05854,44.4834783 L116.589545,42.8888923 L117.05854,41.4819048 L116.401946,37.6361387 L117.05854,36.4167495 L115.370155,31.9143892 L115.182557,31.257795 L114.80736,30.7887992 C114.869893,30.663733 114.994958,30.3823383 115.182557,29.9446066 C115.307623,29.6944742 115.370155,29.5694099 115.370155,29.5694099 L115.370155,29.1942133 C115.370155,28.6939485 115.870413,28.2249573 116.870942,27.7872257 L117.808934,25.1608489 L120.435311,25.6298447 L121.560901,26.2864389 L124.187277,25.7236439 L124.187277,27.0368323 L125.312867,26.7554348 L125.312867,31.1639959 L124.843872,31.9143892 L125.594265,33.7903727 L125.594265,35.0097619 L126.063261,36.5105487 L125.312867,38.2927329 L125.594265,39.5121222 L125.125269,43.8268841 L125.125269,44.4834783 L127.095052,44.3896791 L130.753219,43.5454865 L132.535404,43.7330849 L133.660994,43.5454865 L135.724576,43.5454865 C136.22484,43.2953542 136.756364,43.1702899 137.319161,43.1702899 C137.69436,43.1702899 138.163351,43.2953542 138.726149,43.5454865 L141.071128,43.5454865 Z" id="H" fill="#1E3F40" filter="url(#filter-2)" sketch:type="MSShapeGroup"></path>
    </g>
</svg>